<svg width="35" height="35" viewBox="0 0 35 35" fill="none" xmlns="http://www.w3.org/2000/svg">
<path d="M26.25 0H10.9375V13.125H12.4687L12.9063 14.6562L13.125 14.875V2.1875H24.0625V10.9375H32.8125V30.625H19.6875L20.3438 31.7188L19.25 32.8125H35V8.75L26.25 0ZM26.25 8.75V2.1875L32.8125 8.75H26.25Z" fill="#011F2B"/>
<path d="M12.0312 25.1562C12.0312 25.7364 11.8008 26.2928 11.3905 26.703C10.9803 27.1133 10.4239 27.3438 9.84375 27.3438C9.26359 27.3438 8.70719 27.1133 8.29695 26.703C7.88672 26.2928 7.65625 25.7364 7.65625 25.1562C7.65625 24.5761 7.88672 24.0197 8.29695 23.6095C8.70719 23.1992 9.26359 22.9688 9.84375 22.9688C10.4239 22.9688 10.9803 23.1992 11.3905 23.6095C11.8008 24.0197 12.0312 24.5761 12.0312 25.1562Z" fill="#011F2B"/>
<path d="M17.2812 27.125L19.6875 26.25V24.0625L17.2812 23.1875C17.0625 22.5313 16.8438 21.875 16.4062 21.2187L17.5 19.0312L15.9688 17.5L13.7812 18.5938C13.125 18.1562 12.4688 17.9375 11.8125 17.7188L10.9375 15.3125H8.75L7.875 17.7188C7.21875 17.9375 6.5625 18.1562 5.90625 18.5938L3.71875 17.5L2.1875 19.0312L3.28125 21.4375C2.84375 22.0938 2.625 22.75 2.40625 23.4062L0 24.0625V26.25L2.40625 27.125C2.625 27.7812 2.84375 28.4375 3.28125 29.0938L2.1875 31.2812L3.71875 32.8125L6.125 31.7188C6.78125 32.1562 7.4375 32.375 8.09375 32.5938L8.75 35H10.9375L11.8125 32.5938C12.4688 32.375 13.125 32.1562 13.7812 31.7188L15.9688 32.8125L17.5 31.2812L16.4062 28.875C16.8438 28.4375 17.0625 27.7812 17.2812 27.125ZM9.84375 29.5312C7.4375 29.5312 5.46875 27.5625 5.46875 25.1562C5.46875 22.75 7.4375 20.7812 9.84375 20.7812C12.25 20.7812 14.2188 22.75 14.2188 25.1562C14.2188 27.5625 12.25 29.5312 9.84375 29.5312Z" fill="#011F2B"/>
</svg>
