<svg width="28" height="33" viewBox="0 0 28 33" fill="none" xmlns="http://www.w3.org/2000/svg">
<path d="M19.25 0H3.9375V13.125H5.46875L5.90625 14.6562L6.125 14.875V2.1875H17.0625V10.9375H25.8125V30.625H12.6875L13.3438 31.7188L12.25 32.8125H28V8.75L19.25 0ZM19.25 8.75V2.1875L25.8125 8.75H19.25Z" fill="#434343"/>
<rect x="2" y="26" width="3" height="7" fill="black"/>
<rect x="6" y="24" width="3" height="9" fill="black"/>
<rect x="10" y="22" width="3" height="11" fill="black"/>
<circle cx="6" cy="17" r="6" fill="black"/>
<path d="M8.81836 16.9458C8.81836 17.5435 8.72168 18.0635 8.52832 18.5059C8.33496 18.9453 8.06689 19.2983 7.72412 19.5649L8.7876 20.3999L7.94824 21.1426L6.58594 20.0483C6.43066 20.0747 6.26953 20.0879 6.10254 20.0879C5.57227 20.0879 5.09912 19.9604 4.68311 19.7056C4.26709 19.4507 3.94482 19.0874 3.71631 18.6157C3.48779 18.1411 3.37207 17.5962 3.36914 16.981V16.6646C3.36914 16.0347 3.48193 15.481 3.70752 15.0034C3.93604 14.5229 4.25684 14.1553 4.66992 13.9004C5.08594 13.6426 5.56055 13.5137 6.09375 13.5137C6.62695 13.5137 7.1001 13.6426 7.51318 13.9004C7.9292 14.1553 8.25 14.5229 8.47559 15.0034C8.7041 15.481 8.81836 16.0332 8.81836 16.6602V16.9458ZM7.48242 16.6558C7.48242 15.9849 7.3623 15.4751 7.12207 15.1265C6.88184 14.7778 6.53906 14.6035 6.09375 14.6035C5.65137 14.6035 5.31006 14.7764 5.06982 15.1221C4.82959 15.4648 4.70801 15.9688 4.70508 16.6338V16.9458C4.70508 17.5991 4.8252 18.106 5.06543 18.4663C5.30566 18.8267 5.65137 19.0068 6.10254 19.0068C6.54492 19.0068 6.88477 18.834 7.12207 18.4883C7.35938 18.1396 7.47949 17.6328 7.48242 16.9678V16.6558Z" fill="white"/>
<rect x="13" y="18" width="1" height="15" fill="#E5E5E5"/>
</svg>

