<svg width="35" height="35" viewBox="0 0 35 35" fill="none" xmlns="http://www.w3.org/2000/svg">
  <path d="M24.25 0H8.9375V13.125H10.4687L10.9063 14.6562L11.125 14.875V2.1875H22.0625V10.9375H30.8125V30.625H17.6875L18.3438 31.7188L17.25 32.8125H33V8.75L24.25 0ZM24.25 8.75V2.1875L30.8125 8.75H24.25Z" fill="#434343"/>
  <rect x="7" y="26" width="3" height="7" fill="black"/>
  <rect x="11" y="24" width="3" height="9" fill="black"/>
  <rect x="15" y="22" width="3" height="11" fill="black"/>
  <rect x="19" y="20" width="3" height="13" fill="black"/>
  <circle cx="11" cy="17" r="6" fill="black"/>
  <path d="M13.6294 17.0073C13.6294 17.6255 13.5312 18.1587 13.335 18.6069C13.1387 19.0522 12.8633 19.4009 12.5088 19.6528L13.6514 20.5493L13.0757 21.0811L11.7266 20.0088C11.5156 20.0615 11.293 20.0879 11.0586 20.0879C10.5547 20.0879 10.1079 19.9648 9.71826 19.7188C9.32861 19.4697 9.02539 19.1167 8.80859 18.6597C8.59473 18.1997 8.48486 17.668 8.479 17.0645V16.603C8.479 15.9878 8.58594 15.4443 8.7998 14.9727C9.01367 14.501 9.31543 14.1406 9.70508 13.8916C10.0977 13.6396 10.5459 13.5137 11.0498 13.5137C11.5654 13.5137 12.0181 13.6382 12.4077 13.8872C12.8003 14.1362 13.1021 14.4951 13.313 14.9639C13.5239 15.4297 13.6294 15.9746 13.6294 16.5986V17.0073ZM12.7856 16.5942C12.7856 15.8413 12.6348 15.2612 12.333 14.854C12.0342 14.4438 11.6064 14.2388 11.0498 14.2388C10.5195 14.2388 10.1006 14.4424 9.79297 14.8496C9.48828 15.2539 9.33154 15.8164 9.32275 16.5371V17.0073C9.32275 17.7397 9.4751 18.3169 9.77979 18.7388C10.0874 19.1606 10.5137 19.3716 11.0586 19.3716C11.6035 19.3716 12.0254 19.1738 12.3242 18.7783C12.623 18.3799 12.7769 17.8101 12.7856 17.0688V16.5942Z" fill="white"/>
  <rect x="18" y="18" width="1" height="15" fill="#E5E5E5"/>
</svg>

