<svg width="35" height="35" viewBox="0 0 35 35" fill="none" xmlns="http://www.w3.org/2000/svg">
<path fill-rule="evenodd" clip-rule="evenodd" d="M6.53337 2.33334H6.41671C5.88237 2.33334 5.42271 2.33334 5.01671 2.429C4.38819 2.57919 3.81352 2.90044 3.35638 3.35718C2.89923 3.81391 2.57746 4.38829 2.42671 5.01667C2.33337 5.42267 2.33337 5.88 2.33337 6.41667V12.25C2.33337 12.7843 2.33337 13.244 2.42904 13.65C2.57923 14.2785 2.90048 14.8532 3.35722 15.3103C3.81395 15.7675 4.38833 16.0893 5.01671 16.24C5.42271 16.3333 5.88004 16.3333 6.41671 16.3333H12.25C12.7844 16.3333 13.244 16.3333 13.65 16.2377C14.2786 16.0875 14.8532 15.7662 15.3104 15.3095C15.7675 14.8528 16.0893 14.2784 16.24 13.65C16.3334 13.244 16.3334 12.7867 16.3334 12.25V6.41667C16.3334 5.88234 16.3334 5.42267 16.2377 5.01667C16.0875 4.38815 15.7663 3.81349 15.3095 3.35634C14.8528 2.8992 14.2784 2.57742 13.65 2.42667C13.244 2.33334 12.7867 2.33334 12.25 2.33334H6.53337ZM5.56037 4.69934C5.66071 4.676 5.81704 4.66667 6.53337 4.66667H12.1334C12.852 4.66667 13.006 4.67367 13.1064 4.69934C13.316 4.74946 13.5076 4.85666 13.66 5.00905C13.8124 5.16144 13.9196 5.35307 13.9697 5.56267C13.993 5.66067 14 5.81467 14 6.53334V12.1333C14 12.852 13.993 13.006 13.9674 13.1063C13.9173 13.3159 13.81 13.5076 13.6577 13.66C13.5053 13.8123 13.3136 13.9195 13.104 13.9697C13.0084 13.9907 12.8544 14 12.1334 14H6.53337C5.81471 14 5.66071 13.993 5.56037 13.9673C5.35077 13.9172 5.15915 13.81 5.00676 13.6576C4.85437 13.5052 4.74716 13.3136 4.69704 13.104C4.67604 13.0083 4.66671 12.8543 4.66671 12.1333V6.53334C4.66671 5.81467 4.67371 5.66067 4.69937 5.56034C4.7495 5.35073 4.8567 5.15911 5.00909 5.00672C5.16148 4.85433 5.3531 4.74713 5.56271 4.697L5.56037 4.69934ZM22.8667 2.33334H22.75C22.2157 2.33334 21.756 2.33334 21.35 2.429C20.7215 2.57919 20.1469 2.90044 19.6897 3.35718C19.2326 3.81391 18.9108 4.38829 18.76 5.01667C18.6667 5.42267 18.6667 5.88 18.6667 6.41667V12.25C18.6667 12.7843 18.6667 13.244 18.7624 13.65C18.9126 14.2785 19.2338 14.8532 19.6905 15.3103C20.1473 15.7675 20.7217 16.0893 21.35 16.24C21.756 16.3333 22.2134 16.3333 22.75 16.3333H28.5834C29.1177 16.3333 29.5774 16.3333 29.9834 16.2377C30.6119 16.0875 31.1866 15.7662 31.6437 15.3095C32.1008 14.8528 32.4226 14.2784 32.5734 13.65C32.6667 13.244 32.6667 12.7867 32.6667 12.25V6.41667C32.6667 5.88234 32.6667 5.42267 32.571 5.01667C32.4209 4.38815 32.0996 3.81349 31.6429 3.35634C31.1861 2.8992 30.6118 2.57742 29.9834 2.42667C29.5774 2.33334 29.12 2.33334 28.5834 2.33334H22.8667ZM21.8937 4.69934C21.994 4.676 22.1504 4.66667 22.8667 4.66667H28.4667C29.1854 4.66667 29.3394 4.67367 29.4397 4.69934C29.6493 4.74946 29.8409 4.85666 29.9933 5.00905C30.1457 5.16144 30.2529 5.35307 30.303 5.56267C30.3264 5.66067 30.3334 5.81467 30.3334 6.53334V12.1333C30.3334 12.852 30.324 13.006 30.3007 13.1063C30.2506 13.3159 30.1434 13.5076 29.991 13.66C29.8386 13.8123 29.647 13.9195 29.4374 13.9697C29.3394 13.993 29.1854 14 28.4667 14H22.8667C22.148 14 21.994 13.993 21.8937 13.9673C21.6841 13.9172 21.4925 13.81 21.3401 13.6576C21.1877 13.5052 21.0805 13.3136 21.0304 13.104C21.0094 13.0083 21 12.8543 21 12.1333V6.53334C21 5.81467 21.007 5.66067 21.0327 5.56034C21.0828 5.35073 21.19 5.15911 21.3424 5.00672C21.4948 4.85433 21.6864 4.74713 21.896 4.697L21.8937 4.69934ZM6.41671 18.6667H12.25C12.7844 18.6667 13.244 18.6667 13.65 18.7623C14.2786 18.9125 14.8532 19.2338 15.3104 19.6905C15.7675 20.1472 16.0893 20.7216 16.24 21.35C16.3334 21.756 16.3334 22.2133 16.3334 22.75V28.5833C16.3334 29.1177 16.3334 29.5773 16.2377 29.9833C16.0875 30.6119 15.7663 31.1865 15.3095 31.6437C14.8528 32.1008 14.2784 32.4226 13.65 32.5733C13.244 32.6667 12.7867 32.6667 12.25 32.6667H6.41671C5.88237 32.6667 5.42271 32.6667 5.01671 32.571C4.38819 32.4208 3.81352 32.0996 3.35638 31.6428C2.89923 31.1861 2.57746 30.6117 2.42671 29.9833C2.33337 29.5773 2.33337 29.12 2.33337 28.5833V22.75C2.33337 22.2157 2.33337 21.756 2.42904 21.35C2.57923 20.7215 2.90048 20.1468 3.35722 19.6897C3.81395 19.2325 4.38833 18.9108 5.01671 18.76C5.42271 18.6667 5.88004 18.6667 6.41671 18.6667ZM6.53337 21C5.81471 21 5.66071 21.007 5.56037 21.0327C5.35077 21.0828 5.15915 21.19 5.00676 21.3424C4.85437 21.4948 4.74716 21.6864 4.69704 21.896C4.67604 21.9917 4.66671 22.1457 4.66671 22.8667V28.4667C4.66671 29.1853 4.67371 29.3393 4.69937 29.4397C4.7495 29.6493 4.8567 29.8409 5.00909 29.9933C5.16148 30.1457 5.3531 30.2529 5.56271 30.303C5.66071 30.3263 5.81471 30.3333 6.53337 30.3333H12.1334C12.852 30.3333 13.006 30.324 13.1064 30.3007C13.316 30.2505 13.5076 30.1433 13.66 29.991C13.8124 29.8386 13.9196 29.6469 13.9697 29.4373C13.993 29.3393 14 29.1853 14 28.4667V22.8667C14 22.148 13.993 21.994 13.9674 21.8937C13.9173 21.6841 13.81 21.4924 13.6577 21.3401C13.5053 21.1877 13.3136 21.0805 13.104 21.0303C13.0084 21.0093 12.8544 21 12.1334 21H6.53337ZM22.8667 18.6667H22.75C22.2157 18.6667 21.756 18.6667 21.35 18.7623C20.7215 18.9125 20.1469 19.2338 19.6897 19.6905C19.2326 20.1472 18.9108 20.7216 18.76 21.35C18.6667 21.756 18.6667 22.2133 18.6667 22.75V28.5833C18.6667 29.1177 18.6667 29.5773 18.7624 29.9833C18.9126 30.6119 19.2338 31.1865 19.6905 31.6437C20.1473 32.1008 20.7217 32.4226 21.35 32.5733C21.756 32.669 22.2157 32.669 22.75 32.669H28.5834C29.1177 32.669 29.5774 32.669 29.9834 32.5733C30.6115 32.4228 31.1856 32.1013 31.6423 31.6446C32.0991 31.1879 32.4205 30.6138 32.571 29.9857C32.6667 29.5797 32.6667 29.12 32.6667 28.5857V22.75C32.6667 22.2157 32.6667 21.756 32.571 21.35C32.4209 20.7215 32.0996 20.1468 31.6429 19.6897C31.1861 19.2325 30.6118 18.9108 29.9834 18.76C29.5774 18.6667 29.12 18.6667 28.5834 18.6667H22.8667ZM21.8937 21.0327C21.994 21.0093 22.1504 21 22.8667 21H28.4667C29.1854 21 29.3394 21.007 29.4397 21.0327C29.6493 21.0828 29.8409 21.19 29.9933 21.3424C30.1457 21.4948 30.2529 21.6864 30.303 21.896C30.3264 21.994 30.3334 22.148 30.3334 22.8667V28.4667C30.3334 29.1853 30.324 29.3393 30.3007 29.4397C30.2506 29.6493 30.1434 29.8409 29.991 29.9933C29.8386 30.1457 29.647 30.2529 29.4374 30.303C29.3394 30.3263 29.1854 30.3333 28.4667 30.3333H22.8667C22.148 30.3333 21.994 30.324 21.8937 30.3007C21.6841 30.2505 21.4925 30.1433 21.3401 29.991C21.1877 29.8386 21.0805 29.6469 21.0304 29.4373C21.0094 29.3417 21 29.1877 21 28.4667V22.8667C21 22.148 21.007 21.994 21.0327 21.8937C21.0828 21.6841 21.19 21.4924 21.3424 21.3401C21.4948 21.1877 21.6864 21.0805 21.896 21.0303L21.8937 21.0327Z" fill="#011F2B"/>
</svg>
