<svg width="25" height="33" viewBox="0 0 25 33" fill="none" xmlns="http://www.w3.org/2000/svg">
<rect width="2" height="33" fill="black"/>
<rect x="11" width="2" height="33" fill="black"/>
<rect x="23" y="9" width="2" height="24" fill="black"/>
<rect y="31" width="24.6" height="2" fill="black"/>
<rect width="13" height="2" fill="black"/>
<rect x="11" y="9" width="13" height="2" fill="black"/>
<rect x="5" y="5" width="1" height="3" fill="black"/>
<rect x="8" y="5" width="1" height="3" fill="black"/>
<rect x="16" y="26" width="1" height="3" fill="black"/>
<rect x="19" y="26" width="1" height="3" fill="black"/>
<rect x="16" y="21" width="1" height="3" fill="black"/>
<rect x="19" y="21" width="1" height="3" fill="black"/>
<rect x="16" y="13" width="1" height="3" fill="black"/>
<rect x="19" y="13" width="1" height="3" fill="black"/>
<rect x="5" y="26" width="1" height="3" fill="black"/>
<rect x="8" y="26" width="1" height="3" fill="black"/>
<rect x="5" y="20" width="1" height="3" fill="black"/>
<rect x="8" y="20" width="1" height="3" fill="black"/>
<rect x="5" y="10" width="1" height="3" fill="black"/>
<rect x="8" y="10" width="1" height="3" fill="black"/>
<rect x="4" y="16" width="6" height="1" fill="black"/>
<rect x="15" y="18" width="6" height="1" fill="black"/>
</svg>


