<svg width="30" height="34" viewBox="0 0 30 34" fill="none" xmlns="http://www.w3.org/2000/svg">
<rect x="16.0366" y="30.6732" width="2.14161" height="9.98644" transform="rotate(90.8656 16.0366 30.6732)" fill="#454545"/>
<path d="M21.2102 0H5.9375V13.125H7.46477L7.90114 14.6562L8.11932 14.875V2.1875H19.0284V10.9375H27.7557V30.625H14.6648L15.3193 31.7188L14.2284 32.8125H29.9375V8.75L21.2102 0ZM21.2102 8.75V2.1875L27.7557 8.75H21.2102Z" fill="#434343"/>
<rect x="6" y="13" width="3" height="2" fill="#E5E5E5"/>
<rect x="1.89435" y="16.3217" width="7" height="21.7743" transform="rotate(-39.4727 1.89435 16.3217)" fill="black"/>
<rect x="4.08182" y="16.5592" width="3.9976" height="18.9883" transform="rotate(-39.4727 4.08182 16.5592)" fill="#E5E5E5"/>
<line x1="13.6763" y1="23.4928" x2="14.7053" y2="22.6189" stroke="black"/>
<line x1="11.6862" y1="20.4983" x2="12.7872" y2="19.6107" stroke="black"/>
<rect x="19.606" y="11.4049" width="5.28955" height="25.4173" rx="2" transform="rotate(47.0562 19.606 11.4049)" fill="black"/>
<rect x="17.7149" y="14.3876" width="3.65687" height="20.6373" transform="rotate(47.0562 17.7149 14.3876)" fill="#E5E5E5"/>
<path d="M0.542589 33.0811L1.82583 28.7175L4.88945 31.7424L0.542589 33.0811Z" fill="black"/>
<rect x="16.6381" y="18" width="0.3" height="9" transform="rotate(47.5244 16.6381 18)" fill="black"/>
<line x1="8.90307" y1="16.7004" x2="8.60133" y2="16.3017" stroke="black"/>
<line x1="16.9031" y1="25.7004" x2="16.6013" y2="25.3017" stroke="black"/>
<line x1="15.9031" y1="24.7004" x2="15.6013" y2="24.3017" stroke="black"/>
<line x1="17.9031" y1="27.7004" x2="17.6013" y2="27.3017" stroke="black"/>
<line x1="7.90307" y1="15.7004" x2="7.60133" y2="15.3017" stroke="black"/>
<line x1="9.90307" y1="17.7004" x2="9.60133" y2="17.3017" stroke="black"/>
</svg>
