<svg width="25" height="31" viewBox="0 0 25 31" fill="none" xmlns="http://www.w3.org/2000/svg">
<path d="M22.3438 3.46875H19.0625V2.375C19.0625 1.79484 18.832 1.23844 18.4218 0.828204C18.0116 0.417968 17.4552 0.1875 16.875 0.1875H8.125C7.54484 0.1875 6.98844 0.417968 6.5782 0.828204C6.16797 1.23844 5.9375 1.79484 5.9375 2.375V3.46875H2.65625C2.07609 3.46875 1.51969 3.69922 1.10945 4.10945C0.699218 4.51969 0.46875 5.07609 0.46875 5.65625V28.625C0.46875 29.2052 0.699218 29.7616 1.10945 30.1718C1.51969 30.582 2.07609 30.8125 2.65625 30.8125H22.3438C22.9239 30.8125 23.4803 30.582 23.8905 30.1718C24.3008 29.7616 24.5312 29.2052 24.5312 28.625V5.65625C24.5312 5.07609 24.3008 4.51969 23.8905 4.10945C23.4803 3.69922 22.9239 3.46875 22.3438 3.46875ZM8.125 2.375H16.875V6.75H8.125V2.375ZM22.3438 28.625H2.65625V5.65625H5.9375V8.9375H19.0625V5.65625H22.3438V28.625Z" fill="#434343"/>
</svg>
