<svg width="42" height="50" viewBox="0 0 42 50" fill="none" xmlns="http://www.w3.org/2000/svg">
<g clip-path="url(#clip0_9_152)">
<path d="M7 0C3.13906 0 0 2.80273 0 6.25V43.75C0 47.1973 3.13906 50 7 50H35C38.8609 50 42 47.1973 42 43.75V15.625H28C26.0641 15.625 24.5 14.2285 24.5 12.5V0H7ZM28 0V12.5H42L28 0ZM23.625 39.8438C23.625 41.1426 22.4547 42.1875 21 42.1875C19.5453 42.1875 18.375 41.1426 18.375 39.8438V29.873L14.9844 32.9004C13.9563 33.8184 12.2937 33.8184 11.2766 32.9004C10.2594 31.9824 10.2484 30.498 11.2766 29.5898L19.1516 22.5586C20.1797 21.6406 21.8422 21.6406 22.8594 22.5586L30.7344 29.5898C31.7625 30.5078 31.7625 31.9922 30.7344 32.9004C29.7062 33.8086 28.0438 33.8184 27.0266 32.9004L23.6359 29.873V39.8438H23.625Z" fill="white"/>
</g>
<defs>
<clipPath id="clip0_9_152">
<rect width="42" height="50" fill="white"/>
</clipPath>
</defs>
</svg>
